<?xml version="1.0" encoding="UTF-8" standalone="no"?>
<svg
   version="1.1"
   id="Layer_1"
   x="0px"
   y="0px"
   width="167.56572"
   viewBox="0 0 167.56572 179.77742"
   enable-background="new 0 0 200 200"
   xml:space="preserve"
   sodipodi:docname="paper.svg"
   height="179.77742"
   inkscape:version="1.2.1 (9c6d41e410, 2022-07-14)"
   xmlns:inkscape="http://www.inkscape.org/namespaces/inkscape"
   xmlns:sodipodi="http://sodipodi.sourceforge.net/DTD/sodipodi-0.dtd"
   xmlns="http://www.w3.org/2000/svg"
   xmlns:svg="http://www.w3.org/2000/svg"><defs
   id="defs6097" /><sodipodi:namedview
   id="namedview6095"
   pagecolor="#ffffff"
   bordercolor="#000000"
   borderopacity="0.25"
   inkscape:showpageshadow="2"
   inkscape:pageopacity="0.0"
   inkscape:pagecheckerboard="0"
   inkscape:deskcolor="#d1d1d1"
   showgrid="false"
   inkscape:zoom="2.0925"
   inkscape:cx="9.3189964"
   inkscape:cy="91.756272"
   inkscape:window-width="1920"
   inkscape:window-height="1017"
   inkscape:window-x="-8"
   inkscape:window-y="-8"
   inkscape:window-maximized="1"
   inkscape:current-layer="Layer_1" />

<path
   fill="#080808"
   opacity="1"
   stroke="none"
   d="m 66.465662,178.78163 c -10.874008,2.92107 -19.639481,-0.61261 -25.498791,-10.22862 -5.603168,-9.19563 -7.923309,-19.48624 -8.105282,-30.02329 -0.417122,-24.1534 -0.192333,-48.317403 -0.349273,-72.476307 -0.02552,-3.929176 -0.670788,-7.854324 -1.110012,-12.6614 -7.925,3.367409 -15.00605,6.392449 -22.1006359,9.385407 -5.259848,2.218941 -6.69906,1.552963 -8.38800805,-3.790199 C -2.0540209,49.598644 2.3920651,39.53725 11.576628,35.914421 40.922155,24.33913 70.292894,12.82447 99.747341,1.5301014 113.16297,-3.6141496 127.8366,4.7139324 130.5924,19.009638 c 1.15757,6.004862 1.49637,12.233061 1.57852,18.36815 0.31895,23.821278 0.26591,47.64787 0.65025,71.467662 0.0734,4.54821 1.50145,9.07456 2.42317,14.28141 8.63864,-3.7923 16.45752,-7.23831 24.28811,-10.65745 5.03242,-2.19735 6.20181,-1.58252 7.44636,3.91945 1.71466,7.58026 -0.28198,14.48181 -6.59337,18.57659 -11.10049,7.20191 -22.43393,14.33918 -34.45639,19.75853 -19.35371,8.72405 -39.346689,16.02996 -59.463388,24.05765 M 126.31855,39.445728 C 125.85651,33.315887 125.89415,27.097561 124.82763,21.074764 122.66011,8.8345434 112.05362,3.1016804 100.52488,7.5725594 84.120521,13.934219 67.756449,20.399753 51.372454,26.813984 42.76528,30.183643 34.15233,33.538563 25.840525,36.783581 c 1.748607,1.957893 3.282333,3.700889 4.843654,5.418811 5.953839,6.550999 7.80576,14.462067 7.823509,23.051461 0.0506,24.485797 -0.02638,48.974507 0.358185,73.455607 0.144219,9.18083 2.077698,18.19564 6.864567,26.27128 4.991814,8.4214 11.630356,10.73308 20.726036,7.42012 4.991226,-1.81796 10.034439,-3.51614 14.936867,-5.55104 20.951787,-8.69658 41.859877,-17.49846 62.783907,-26.26193 -0.055,-0.50206 -0.10992,-1.0041 -0.16489,-1.50616 -9.32557,-3.25322 -13.36026,-10.63912 -15.46055,-19.38634 -0.88834,-3.69974 -1.74158,-7.51745 -1.78841,-11.29173 -0.28105,-22.651448 -0.32283,-45.305844 -0.44485,-68.957932 z"
   id="path6090" />

</svg>
