<?xml version="1.0" encoding="UTF-8" standalone="no"?>
<svg
   version="1.1"
   id="Layer_1"
   x="0px"
   y="0px"
   width="199.47433"
   viewBox="0 0 199.47433 147.83319"
   enable-background="new 0 0 240 240"
   xml:space="preserve"
   sodipodi:docname="rock2.svg"
   height="147.83319"
   inkscape:version="1.2.1 (9c6d41e410, 2022-07-14)"
   xmlns:inkscape="http://www.inkscape.org/namespaces/inkscape"
   xmlns:sodipodi="http://sodipodi.sourceforge.net/DTD/sodipodi-0.dtd"
   xmlns="http://www.w3.org/2000/svg"
   xmlns:svg="http://www.w3.org/2000/svg"><defs
   id="defs2135" /><sodipodi:namedview
   id="namedview2133"
   pagecolor="#ffffff"
   bordercolor="#000000"
   borderopacity="0.25"
   inkscape:showpageshadow="2"
   inkscape:pageopacity="0.0"
   inkscape:pagecheckerboard="0"
   inkscape:deskcolor="#d1d1d1"
   showgrid="false"
   inkscape:zoom="3.4875"
   inkscape:cx="94.193548"
   inkscape:cy="92.329749"
   inkscape:window-width="1920"
   inkscape:window-height="1017"
   inkscape:window-x="-8"
   inkscape:window-y="-8"
   inkscape:window-maximized="1"
   inkscape:current-layer="Layer_1" />
<path
   fill="#000000"
   opacity="1"
   stroke="none"
   d="m 77.287917,9.0144635 c 14.93465,-2.88232 29.470613,-5.577903 43.946973,-8.56253402 4.49536,-0.926826 8.54318,-0.44363 12.55631,1.59341802 13.81015,7.009987 27.60653,14.0485605 41.48025,20.9309155 3.51163,1.742012 5.81747,4.152687 7.03284,7.905037 5.38165,16.615593 10.832,33.209453 16.37256,49.772693 1.24726,3.72865 1.0465,7.21975 -0.70821,10.62248 -1.29408,2.50944 -2.67137,4.99866 -4.25311,7.33325 -7.56595,11.167217 -15.24597,22.257137 -22.81526,33.422127 -2.47194,3.64623 -5.60126,5.84131 -10.09748,6.50857 -23.33619,3.46315 -46.80415,5.8507 -70.193243,8.86244 -10.43195,1.34329 -19.435328,-0.35068 -28.182414,-6.60657 C 50.919252,132.56593 38.939195,125.00874 28.258207,115.65023 16.985559,105.77329 7.5478002,94.508233 1.1470392,80.823663 -0.50733778,77.286683 -0.41603278,74.078813 1.7076172,70.916133 14.282472,52.188813 28.478029,34.827322 45.039965,19.449987 51.419382,13.526854 59.617548,12.588362 67.581629,10.957476 70.674303,10.32416 73.77125,9.7117105 77.287917,9.0144635 m 4.40668,45.9035995 c -0.22323,5.03298 3.75676,6.05374 7.20754,6.77266 20.157613,4.19954 40.363103,8.17085 60.565293,12.15393 5.90337,1.16392 9.10169,-0.53412 11.11527,-6.23454 1.26401,-3.57833 1.69685,-7.44283 2.82159,-11.08029 0.80846,-2.61454 1.71573,-5.4823 5.33609,-5.71964 2.14373,2.93059 1.89936,6.03192 1.17911,9.1687 -1.79346,7.81095 -3.13364,15.68224 -2.35463,23.725 0.8205,8.47084 3.14652,16.444257 8.10541,23.825407 3.90135,-2.6651 5.58797,-6.07968 6.92293,-9.657157 3.23434,-8.66758 2.32159,-17.34736 -0.47592,-25.88488 -2.89949,-8.84869 -6.91806,-17.42254 -8.88955,-26.456531 -1.81605,-8.321907 -6.60669,-13.114754 -13.53515,-16.697152 -8.72571,-4.511657 -17.48235,-8.963531 -26.22025,-13.451705 -7.22955,-3.713425 -8.6774,-3.385735 -13.95874,2.762237 -7.29286,8.48954 -15.35573,16.179146 -24.346873,22.861412 -2.06444,1.534302 -4.15543,3.453728 -7.79861,1.305176 8.34942,-10.777664 18.477623,-19.573189 27.476203,-29.829784 -2.12326,-0.915341 -3.66406,-0.62109 -5.33514,-0.352498 -7.37596,1.185517 -14.747333,2.591126 -22.179163,3.204773 -34.224323,2.825882 -54.751674,24.27179 -71.636585,52.342972 13.078007,-2.54581 25.41404,-4.92828 37.741684,-7.35335 8.778305,-1.72685 17.934929,-2.55305 23.819011,-10.82335 1.06845,-1.501744 3.05245,-2.102414 4.87603,-0.609608 2.27093,1.859028 0.51351,3.568058 -0.43555,6.028218 m -17.79789,11.61269 c -14.610298,2.39756 -28.803016,6.59758 -43.168396,10.04852 -2.844284,0.68328 -3.329712,2.61674 -2.441906,5.41073 2.493519,7.84723 7.028218,14.36517 12.93396,19.882967 13.183232,12.31715 28.43636,21.97378 42.761738,32.82452 2.485684,1.88278 4.299774,1.28242 5.437034,-1.53989 1.99021,-4.93902 3.96988,-9.8825 5.91838,-14.83812 3.30302,-8.40049 8.79109,-14.85174 16.942833,-18.863577 6.27241,-3.08695 12.60778,-6.04592 18.9143,-9.06357 6.18964,-2.96175 12.37822,-5.92575 19.69661,-9.42943 -17.6947,-2.32759 -33.84604,-5.22398 -49.904323,-8.68867 -8.74146,-1.88603 -17.084355,-5.59991 -27.09023,-5.74348 m 26.26208,70.367507 c 1.89912,1.61533 4.14323,0.98316 6.22121,0.77874 15.862213,-1.56034 31.724963,-3.12621 47.567023,-4.87596 8.14374,-0.89948 16.20918,-2.31688 22.43394,-8.41048 4.10831,-4.02175 5.46817,-8.62061 3.01747,-12.45194 -4.88266,-7.63342 -8.32901,-15.837017 -11.33868,-24.339897 -2.15045,-6.07544 -5.07202,-6.95438 -10.73553,-3.84833 -12.398,6.79944 -24.49338,14.19203 -37.135,20.494677 -13.473063,6.71714 -18.826233,17.98501 -20.030433,32.65319 z"
   id="path2130" />
</svg>
