<?xml version="1.0" encoding="UTF-8" standalone="no"?>
<svg
   version="1.1"
   id="Layer_1"
   x="0px"
   y="0px"
   width="186.87247"
   viewBox="0 0 186.87246 480.69102"
   enable-background="new 0 0 200 200"
   xml:space="preserve"
   sodipodi:docname="Combined.svg"
   height="480.69101"
   inkscape:version="1.2.1 (9c6d41e410, 2022-07-14)"
   xmlns:inkscape="http://www.inkscape.org/namespaces/inkscape"
   xmlns:sodipodi="http://sodipodi.sourceforge.net/DTD/sodipodi-0.dtd"
   xmlns="http://www.w3.org/2000/svg"
   xmlns:svg="http://www.w3.org/2000/svg"><defs
   id="defs6097" /><sodipodi:namedview
   id="namedview6095"
   pagecolor="#ffffff"
   bordercolor="#000000"
   borderopacity="0.25"
   inkscape:showpageshadow="2"
   inkscape:pageopacity="0.0"
   inkscape:pagecheckerboard="0"
   inkscape:deskcolor="#d1d1d1"
   showgrid="false"
   inkscape:zoom="1.4796209"
   inkscape:cx="12.503202"
   inkscape:cy="283.85649"
   inkscape:window-width="1920"
   inkscape:window-height="1017"
   inkscape:window-x="-8"
   inkscape:window-y="-8"
   inkscape:window-maximized="1"
   inkscape:current-layer="Layer_1" />

<path
   fill="#080808"
   opacity="1"
   stroke="none"
   d="m 75.211327,479.604 c -11.870009,3.18863 -21.438351,-0.66872 -27.834343,-11.16551 -6.116389,-10.03789 -8.649041,-21.27106 -8.847682,-32.77326 -0.455329,-26.36572 -0.20995,-52.743 -0.381265,-79.11474 -0.02786,-4.28905 -0.732228,-8.57373 -1.211683,-13.82111 -8.650887,3.67585 -16.380523,6.97796 -24.124934,10.24506 -5.7416228,2.42218 -7.3126588,1.6952 -9.1563054,-4.13736 -3.23950458,-10.24851 1.613819,-21.23148 11.6396394,-25.18615 32.033419,-12.63552 64.094357,-25.20486 96.246686,-37.53374 14.64441,-5.61543 30.66208,3.47545 33.6703,19.08057 1.26359,6.55488 1.63342,13.35355 1.72309,20.05058 0.34817,26.00318 0.29027,52.01216 0.70981,78.01371 0.0802,4.9648 1.63898,9.90575 2.64512,15.58951 9.42989,-4.13966 17.96493,-7.9013 26.51277,-11.63362 5.49337,-2.39861 6.76986,-1.72746 8.1284,4.27846 1.87172,8.27457 -0.30781,15.80826 -7.19729,20.2781 -12.11723,7.86156 -24.48875,15.65257 -37.6124,21.5683 -21.12641,9.52312 -42.950633,17.49823 -64.909913,26.2612 M 140.54642,327.5057 c -0.50436,-6.69131 -0.46328,-13.4792 -1.62749,-20.05364 -2.36605,-13.36137 -13.94404,-19.61934 -26.52875,-14.73895 -17.906904,6.94436 -35.769837,14.0021 -53.654517,21.00384 -9.395545,3.67829 -18.797395,7.3405 -27.870516,10.88275 1.90877,2.13724 3.582977,4.03988 5.287306,5.91514 6.499178,7.15104 8.520725,15.78672 8.540099,25.16285 0.05523,26.72857 -0.02879,53.46032 0.390995,80.18376 0.157428,10.02174 2.268003,19.86225 7.493323,28.67758 5.449036,9.19276 12.695634,11.71616 22.624429,8.09976 5.448396,-1.98447 10.953539,-3.83821 16.305003,-6.05947 22.870858,-9.49315 45.694018,-19.10123 68.534578,-28.66739 -0.06,-0.54805 -0.11999,-1.09607 -0.18,-1.64412 -10.17973,-3.5512 -14.58399,-11.6136 -16.87665,-21.16202 -0.96971,-4.03862 -1.9011,-8.206 -1.95221,-12.326 -0.3068,-24.7262 -0.3524,-49.4556 -0.4856,-75.27409 z"
   id="path6090"
   style="stroke-width:1.0916" />

<path
   fill="#000000"
   opacity="1"
   stroke="none"
   d="m 72.341199,149.86243 c 13.978776,-2.69784 27.584377,-5.2209 41.134191,-8.0145 4.20764,-0.8675 7.99638,-0.41523 11.75266,1.49144 12.92625,6.56131 25.8396,13.1494 38.82536,19.59125 3.28687,1.63051 5.44513,3.8869 6.5827,7.39909 5.03721,15.55213 10.13872,31.08392 15.32466,46.58706 1.16743,3.48999 0.97952,6.75766 -0.66289,9.94259 -1.21125,2.34883 -2.50039,4.67873 -3.98088,6.8639 -7.0817,10.45248 -14.27017,20.83259 -21.35501,31.28299 -2.31372,3.41285 -5.24275,5.46743 -9.4512,6.09199 -21.84258,3.2415 -43.8085,5.47623 -65.700595,8.29521 -9.764266,1.25732 -18.191394,-0.32823 -26.378634,-6.18372 C 47.660229,265.50614 36.44694,258.43264 26.449576,249.67312 15.898419,240.42833 7.0647126,229.88428 1.0736244,217.07558 c -1.54849068,-3.3106 -1.46302968,-6.31316 0.5246996,-9.27341 11.770016,-17.5287 25.057005,-33.779 40.558914,-48.17213 5.97111,-5.54403 13.644563,-6.42246 21.098912,-7.94896 2.894731,-0.59277 5.793462,-1.16603 9.085049,-1.81865 m 4.124636,42.96561 c -0.208943,4.71085 3.516313,5.66627 6.74623,6.33918 18.867445,3.93075 37.779705,7.64788 56.688875,11.37603 5.52553,1.08942 8.51914,-0.49994 10.40385,-5.8355 1.18311,-3.34931 1.58825,-6.96647 2.641,-10.37111 0.75671,-2.44721 1.60592,-5.13142 4.99456,-5.35356 2.00652,2.74301 1.77779,5.64585 1.10364,8.58187 -1.67867,7.31101 -2.93307,14.67851 -2.20393,22.2065 0.768,7.92867 2.94514,15.39177 7.58664,22.30049 3.65165,-2.49452 5.23032,-5.69056 6.47983,-9.03906 3.02734,-8.11282 2.17301,-16.23706 -0.44546,-24.22815 -2.7139,-8.28234 -6.47527,-16.30743 -8.32058,-24.76322 -1.69982,-7.78928 -6.18384,-12.27536 -12.66884,-15.62847 -8.16724,-4.2229 -16.36342,-8.38983 -24.54207,-12.59075 -6.76682,-3.47574 -8.122,-3.16903 -13.06532,2.58544 -6.82609,7.94618 -14.372902,15.14363 -22.788571,21.3982 -1.932308,1.4361 -3.889467,3.23268 -7.29947,1.22164 7.815025,-10.08786 17.294979,-18.32043 25.717621,-27.92056 -1.98737,-0.85676 -3.42955,-0.58135 -4.99368,-0.32994 -6.903867,1.10964 -13.803437,2.42528 -20.759602,2.99965 -32.033838,2.64502 -51.24736,22.7183 -67.051574,48.99284 12.240966,-2.38287 23.787446,-4.61286 35.326074,-6.88271 8.216461,-1.61632 16.787027,-2.38965 22.294505,-10.13061 1.000065,-1.40564 2.857081,-1.96786 4.563945,-0.57059 2.125583,1.74003 0.480644,3.33968 -0.407673,5.64239 m -16.658758,10.86942 c -13.675184,2.24411 -26.959514,6.17532 -40.405456,9.40538 -2.662238,0.63955 -3.116597,2.44926 -2.285615,5.06442 2.333925,7.34499 6.578386,13.44575 12.106138,18.61039 12.339456,11.5288 26.616326,20.56737 40.024826,30.72363 2.326591,1.76227 4.024572,1.20033 5.089043,-1.44133 1.862829,-4.62291 3.715792,-9.24999 5.539581,-13.88843 3.091615,-7.86283 8.228428,-13.90117 15.858422,-17.65624 5.870954,-2.88937 11.800844,-5.65895 17.703704,-8.48346 5.79349,-2.77219 11.58597,-5.54648 18.43596,-8.82591 -16.56217,-2.17862 -31.67976,-4.88963 -46.71025,-8.13257 -8.181974,-1.76532 -15.990892,-5.24149 -25.356353,-5.37588 m 24.581208,65.86373 c 1.777569,1.51194 3.878048,0.92023 5.823029,0.72889 14.846966,-1.46047 29.694436,-2.92611 44.522546,-4.56387 7.62251,-0.84192 15.17173,-2.1686 20.99808,-7.87219 3.84537,-3.76433 5.11819,-8.06886 2.82434,-11.65496 -4.57015,-7.14486 -7.79592,-14.82339 -10.61296,-22.78205 -2.01282,-5.68659 -4.7474,-6.50928 -10.04842,-3.60202 -11.60448,6.36425 -22.9257,13.28368 -34.75821,19.18293 -12.610732,6.28722 -17.621278,16.83391 -18.748405,30.56327 z"
   id="path2130"
   style="stroke-width:0.935996" /><path
   fill="#000000"
   opacity="1"
   stroke="none"
   d="m 181.05145,128.94951 c -9.75058,7.27824 -21.0997,7.70697 -30.99133,0.86295 -18.96601,-13.12261 -37.81294,-26.41732 -56.708758,-39.641368 -1.844804,-1.29109 -3.710381,-2.55445 -5.5187,-3.89493 -0.903243,-0.66959 -1.648224,-0.67885 -2.574491,-0.0248 -5.461602,3.85652 -10.932694,7.7004 -16.448423,11.47873 -1.20644,0.82641 -1.410255,1.84615 -1.338116,3.154188 0.414903,7.52282 -1.794329,14.29942 -6.127113,20.36959 -11.107555,15.5615 -32.815778,18.35003 -47.496397,6.10302 C 6.2406427,121.0105 2.0898777,112.69878 1.9902647,102.90754 1.8018317,84.385972 15.578807,71.013782 31.69693,69.593672 c 6.293751,-0.55453 12.243964,0.43109 17.804554,3.40223 1.569377,0.83854 2.718966,0.68803 4.077263,-0.34792 2.264994,-1.72749 4.645557,-3.30344 7.322877,-5.1861 -3.11485,-2.14417 -5.938156,-4.11521 -8.795441,-6.03571 -0.741144,-0.49815 -1.431501,0.0335 -2.102659,0.35933 -12.210167,5.9277 -23.963616,5.08914 -34.919165,-2.89153 C 7.2234457,53.167592 3.0095227,45.159212 2.1647257,35.449592 1.2805507,25.287362 4.7650157,16.619442 11.74341,9.4260119 c 10.972173,-11.31028 29.751642,-12.6006 42.36425,-3.01209 8.875787,6.7476701 13.489292,15.7402501 13.333339,26.9694901 -0.02875,2.0688 0.533171,3.34341 2.305131,4.51001 4.956271,3.26307 9.809094,6.69001 14.603838,10.18786 1.586708,1.15752 2.7552,1.16576 4.357185,0.0368 18.909767,-13.3263 37.867487,-26.58455 56.798627,-39.8806001 4.81301,-3.38035 9.58252,-6.69061 15.63877,-7.66168997 8.96794,-1.43797 19.99958,3.13420997 24.9266,10.64533007 1.15857,1.7662 1.12112,3.13286 -0.50925,4.54714 -1.69329,1.46887 -3.57042,2.7328 -5.41115,4.0236 -22.28878,15.62974 -44.5858,31.2477 -66.87919,46.87085 -0.27018,0.18936 -0.52088,0.40648 -0.90178,0.70579 0.91722,1.14648 2.11711,1.79658 3.19627,2.55377 22.73377,15.95072 45.48262,31.879978 68.22327,47.820928 0.66758,0.46798 1.34018,0.95735 1.90335,1.5402 1.4534,1.50415 1.54899,2.91176 0.2905,4.58296 -1.39826,1.85679 -2.94877,3.58158 -4.93172,5.08315 M 138.59804,40.804562 c 13.31273,-9.32982 26.62546,-18.65964 40.35623,-28.28243 -0.67839,-0.40452 -1.0038,-0.54397 -1.26379,-0.76155 -7.18794,-6.0155901 -16.69871,-6.3203001 -24.78725,-0.66842 -22.64013,15.81983 -45.2532,31.67836 -67.877218,47.52122 -6.366525,4.45825 -12.73547,8.91305 -19.100394,13.3736 -2.877871,2.0168 -5.748588,4.04383 -8.840624,6.21968 4.07117,3.92267 6.839316,8.31595 8.696367,13.19048 0.384353,-0.0693 0.545064,-0.0527 0.645239,-0.12275 23.978183,-16.76439 47.95212,-33.53485 72.17144,-50.46983 M 8.7847797,30.895472 c -0.396159,1.49744 -0.05049,2.97893 0.0797,4.46873 1.2492363,14.29516 14.2889713,25.87435 30.3967933,23.01378 11.261903,-1.99999 18.352077,-9.13757 20.993834,-20.33309 2.364321,-10.0198 -1.821779,-20.59852 -10.622286,-26.65487 C 41.36184,5.6980819 32.39447,5.1255019 23.409176,9.3386419 14.561666,13.487192 9.8888847,20.857522 8.7847847,30.895472 M 30.758864,127.89272 c 2.847087,0.50218 5.685136,0.48003 8.535004,-0.0345 12.9739,-2.34234 23.221712,-13.9506 21.311732,-28.913498 -2.002849,-15.69035 -15.961206,-24.44216 -29.43574,-22.57094 -13.123627,1.82249 -22.8761083,12.83406 -22.5133753,26.647458 0.331305,12.61674 9.2261013,22.43918 22.1023793,24.87147 M 124.82641,84.608202 c -4.80661,-3.3664 -9.58167,-6.77906 -14.42852,-10.08649 -5.07666,-3.46426 -3.25466,-3.4474 -8.29896,-0.0618 -3.20915,2.15385 -6.310621,4.46811 -9.369088,6.64544 0.162572,0.79587 0.607125,1.0132 0.99321,1.28332 19.789858,13.84635 39.581068,27.690798 59.369048,41.539818 4.88496,3.41884 10.21804,4.77492 16.0966,3.42133 3.48056,-0.80145 6.63449,-2.23672 9.20511,-5.22154 -17.91966,-12.54869 -35.62492,-24.947248 -53.5674,-37.520008 M 57.631338,56.779492 c 2.268221,2.17183 5.057147,3.63942 7.510103,5.55878 1.079339,0.84453 1.991241,0.81375 3.110385,0.0112 3.647846,-2.61603 7.356756,-5.14689 11.038589,-7.71567 0.379308,-0.26463 0.850759,-0.46823 0.871943,-1.31593 -4.580063,-3.19321 -9.279993,-6.46999 -14.252509,-9.93682 -1.973202,5.17558 -4.771371,9.39476 -8.278511,13.39848 z"
   id="path4497"
   style="stroke-width:0.40953" /></svg>
