<?xml version="1.0" encoding="UTF-8" standalone="no"?>
<svg
   version="1.1"
   id="Layer_1"
   x="0px"
   y="0px"
   width="451.4541"
   viewBox="0 0 451.4541 329.6434"
   enable-background="new 0 0 512 512"
   xml:space="preserve"
   sodipodi:docname="scissor2.svg"
   height="329.6434"
   inkscape:version="1.2.1 (9c6d41e410, 2022-07-14)"
   xmlns:inkscape="http://www.inkscape.org/namespaces/inkscape"
   xmlns:sodipodi="http://sodipodi.sourceforge.net/DTD/sodipodi-0.dtd"
   xmlns="http://www.w3.org/2000/svg"
   xmlns:svg="http://www.w3.org/2000/svg"><defs
   id="defs4502" /><sodipodi:namedview
   id="namedview4500"
   pagecolor="#ffffff"
   bordercolor="#000000"
   borderopacity="0.25"
   inkscape:showpageshadow="2"
   inkscape:pageopacity="0.0"
   inkscape:pagecheckerboard="0"
   inkscape:deskcolor="#d1d1d1"
   showgrid="false"
   inkscape:zoom="1.6347656"
   inkscape:cx="225.41458"
   inkscape:cy="138.85783"
   inkscape:window-width="1920"
   inkscape:window-height="1017"
   inkscape:window-x="-8"
   inkscape:window-y="-8"
   inkscape:window-maximized="1"
   inkscape:current-layer="Layer_1" />
<path
   fill="#000000"
   opacity="1"
   stroke="none"
   d="m 437.24019,314.87172 c -23.80915,17.77218 -51.5217,18.81906 -75.67527,2.10717 -46.31164,-32.04306 -92.33249,-64.50637 -138.47273,-96.79715 -4.50468,-3.15261 -9.06009,-6.23751 -13.47568,-9.51074 -2.20556,-1.63501 -4.02467,-1.65762 -6.28645,-0.0605 -13.33626,9.41693 -26.69569,18.803 -40.16412,28.02899 -2.94591,2.01797 -3.44359,4.50799 -3.26744,7.70199 1.01312,18.36939 -4.38143,34.91663 -14.96132,49.73889 C 117.81451,334.07879 64.806896,340.8879 28.959442,310.98287 10.383331,295.48611 0.24790298,275.19039 0.00466498,251.28191 -0.45545402,206.05556 33.185466,173.40304 72.543048,169.93539 c 15.36822,-1.35407 29.897582,1.05264 43.475552,8.30764 3.83214,2.04758 6.63923,1.68003 9.95595,-0.84957 5.53071,-4.21821 11.34362,-8.06641 17.88116,-12.66352 -7.60591,-5.23569 -14.49992,-10.04861 -21.4769,-14.73813 -1.80974,-1.2164 -3.49547,0.0818 -5.13432,0.87741 -29.815052,14.4744 -58.51488,12.42679 -85.266379,-7.0606 C 12.783161,129.82583 2.493511,110.27079 0.43066898,86.561608 -1.728329,61.747288 6.780113,40.581758 23.82011,23.016678 50.612201,-4.6010117 96.468318,-7.7517417 127.26606,15.661698 c 21.67309,16.47661 32.93845,38.43488 32.55764,65.85468 -0.0702,5.05165 1.30191,8.16402 5.62872,11.01265 12.10233,7.967822 23.95206,16.335802 35.65997,24.876912 3.87446,2.82647 6.72771,2.8466 10.63947,0.0899 46.1743,-32.540452 92.46568,-64.914732 138.69215,-97.381302 11.75251,-8.25423 23.39881,-16.3372897 38.18708,-18.7084997 21.89813,-3.51126 48.83544,7.65319 60.86633,25.9939897 2.82904,4.31276 2.73758,7.64989 -1.2435,11.10332 -4.1347,3.58671 -8.71832,6.673 -13.21307,9.82493 -54.42521,38.16503 -108.87058,76.301302 -163.30707,114.450252 -0.65973,0.46237 -1.27188,0.99255 -2.20197,1.72341 2.23969,2.7995 5.16959,4.38694 7.80472,6.23584 55.51181,38.94883 111.06046,77.84525 166.58905,116.77021 1.63013,1.1427 3.27249,2.33767 4.64767,3.76089 3.54895,3.67288 3.78235,7.10999 0.70932,11.19077 -3.41427,4.53396 -7.20037,8.74557 -12.04238,12.41214 M 333.57655,99.637508 c 32.5073,-22.78175 65.01462,-45.56351 98.54273,-69.06064 -1.65653,-0.98775 -2.45111,-1.32826 -3.08597,-1.85956 -17.55167,-14.68901 -40.77527,-15.43304 -60.52606,-1.63215 C 313.2241,65.714348 258.007,104.43805 202.76317,143.12349 c -15.54592,10.88626 -31.09775,21.7641 -46.63976,32.65594 -7.02725,4.92468 -14.03703,9.87433 -21.58723,15.18738 9.94107,9.57846 16.70039,20.30606 21.23498,32.20877 0.93852,-0.16916 1.33095,-0.12872 1.57556,-0.29971 C 215.89717,181.9402 274.43727,140.98973 333.57655,99.637508 M 16.595661,75.441298 c -0.96735,3.65648 -0.123299,7.274 0.194603,10.91185 3.050411,34.906222 34.891121,63.180522 74.223554,56.195542 27.499562,-4.88364 44.812502,-22.31232 51.263202,-49.649772 5.77325,-24.46658 -4.44846,-50.29791 -25.93773,-65.08645 -20.196262,-13.8987 -42.092982,-15.29686 -64.03347,-5.00911 -21.604042,10.13002 -33.014141,28.12707 -35.710159,52.63794 M 70.252448,312.2913 c 6.95208,1.22623 13.88209,1.17215 20.84096,-0.0842 31.679952,-5.71957 56.703282,-34.06485 52.039452,-70.60159 -4.8906,-38.31305 -38.97442,-59.68341 -71.876832,-55.11423 -32.04556,4.4502 -55.85938,31.3385 -54.973653,65.06836 0.80899,30.80783 22.528496,54.79248 53.970073,60.73169 M 299.94868,206.59828 c -11.73691,-8.22015 -23.39676,-16.55325 -35.2319,-24.62942 -12.3963,-8.45911 -7.9473,-8.41794 -20.26459,-0.15107 -7.83618,5.25931 -15.40942,10.91034 -22.87765,16.22699 0.39697,1.94336 1.48249,2.47406 2.42524,3.13364 48.32332,33.81033 96.64995,67.61597 144.96868,101.43283 11.92819,8.3482 24.95065,11.65951 39.30502,8.35428 8.49893,-1.957 16.20026,-5.46167 22.47723,-12.75006 -43.75662,-30.6417 -86.98968,-60.91675 -130.80203,-91.61719 M 135.87025,138.64534 c 5.53859,5.30322 12.34865,8.88681 18.33833,13.57354 2.63556,2.0622 4.86226,1.98704 7.59501,0.0273 8.90739,-6.38788 17.96389,-12.56778 26.95427,-18.84029 0.9262,-0.64619 2.0774,-1.14334 2.12913,-3.21326 -11.1837,-7.79725 -22.66009,-15.79858 -34.80209,-24.26396 -4.81821,12.63785 -11.65084,22.94034 -20.21465,32.71671 z"
   id="path4497" />
</svg>
